# Cone - low poly primitive, flat shaded
o PrototypeCone
g PrototypeCone
v 0.500000 0.000000 0.000000
v 0.000000 1.000000 0.000000
v 0.353553 0.000000 0.353553
v 0.353553 0.000000 0.353553
v 0.000000 1.000000 0.000000
v 0.000000 0.000000 0.500000
v 0.000000 0.000000 0.500000
v 0.000000 1.000000 0.000000
v -0.353553 0.000000 0.353553
v -0.353553 0.000000 0.353553
v 0.000000 1.000000 0.000000
v -0.500000 0.000000 0.000000
v -0.500000 0.000000 0.000000
v 0.000000 1.000000 0.000000
v -0.353553 0.000000 -0.353553
v -0.353553 0.000000 -0.353553
v 0.000000 1.000000 0.000000
v -0.000000 0.000000 -0.500000
v -0.000000 0.000000 -0.500000
v 0.000000 1.000000 0.000000
v 0.353553 0.000000 -0.353553
v 0.353553 0.000000 -0.353553
v 0.000000 1.000000 0.000000
v 0.500000 0.000000 0.000000
v 0.000000 0.000000 0.000000
v 0.500000 0.000000 0.000000
v 0.353553 0.000000 0.353553
v 0.000000 0.000000 0.000000
v 0.353553 0.000000 0.353553
v 0.000000 0.000000 0.500000
v 0.000000 0.000000 0.000000
v 0.000000 0.000000 0.500000
v -0.353553 0.000000 0.353553
v 0.000000 0.000000 0.000000
v -0.353553 0.000000 0.353553
v -0.500000 0.000000 0.000000
v 0.000000 0.000000 0.000000
v -0.500000 0.000000 0.000000
v -0.353553 0.000000 -0.353553
v 0.000000 0.000000 0.000000
v -0.353553 0.000000 -0.353553
v -0.000000 0.000000 -0.500000
v 0.000000 0.000000 0.000000
v -0.000000 0.000000 -0.500000
v 0.353553 0.000000 -0.353553
v 0.000000 0.000000 0.000000
v 0.353553 0.000000 -0.353553
v 0.500000 0.000000 0.000000
vt 0.000000 0.000000
vt 0.062500 1.000000
vt 0.125000 0.000000
vt 0.125000 0.000000
vt 0.187500 1.000000
vt 0.250000 0.000000
vt 0.250000 0.000000
vt 0.312500 1.000000
vt 0.375000 0.000000
vt 0.375000 0.000000
vt 0.437500 1.000000
vt 0.500000 0.000000
vt 0.500000 0.000000
vt 0.562500 1.000000
vt 0.625000 0.000000
vt 0.625000 0.000000
vt 0.687500 1.000000
vt 0.750000 0.000000
vt 0.750000 0.000000
vt 0.812500 1.000000
vt 0.875000 0.000000
vt 0.875000 0.000000
vt 0.937500 1.000000
vt 1.000000 0.000000
vt 0.500000 0.500000
vt 1.000000 0.500000
vt 0.853553 0.853553
vt 0.500000 0.500000
vt 0.853553 0.853553
vt 0.500000 1.000000
vt 0.500000 0.500000
vt 0.500000 1.000000
vt 0.146447 0.853553
vt 0.500000 0.500000
vt 0.146447 0.853553
vt 0.000000 0.500000
vt 0.500000 0.500000
vt 0.000000 0.500000
vt 0.146447 0.146447
vt 0.500000 0.500000
vt 0.146447 0.146447
vt 0.500000 0.000000
vt 0.500000 0.500000
vt 0.500000 0.000000
vt 0.853553 0.146447
vt 0.500000 0.500000
vt 0.853553 0.146447
vt 1.000000 0.500000
vn 0.838717 0.419358 0.347408
vn 0.347408 0.419358 0.838717
vn -0.347408 0.419358 0.838717
vn -0.838717 0.419358 0.347408
vn -0.838717 0.419358 -0.347408
vn -0.347408 0.419358 -0.838717
vn 0.347408 0.419358 -0.838717
vn 0.838717 0.419358 -0.347408
vn 0.000000 -1.000000 0.000000
vn 0.000000 -1.000000 0.000000
vn 0.000000 -1.000000 0.000000
vn 0.000000 -1.000000 0.000000
vn -0.000000 -1.000000 0.000000
vn 0.000000 -1.000000 0.000000
vn 0.000000 -1.000000 -0.000000
vn 0.000000 -1.000000 0.000000
f 1/1/1 2/2/1 3/3/1
f 4/4/2 5/5/2 6/6/2
f 7/7/3 8/8/3 9/9/3
f 10/10/4 11/11/4 12/12/4
f 13/13/5 14/14/5 15/15/5
f 16/16/6 17/17/6 18/18/6
f 19/19/7 20/20/7 21/21/7
f 22/22/8 23/23/8 24/24/8
f 25/25/9 26/26/9 27/27/9
f 28/28/10 29/29/10 30/30/10
f 31/31/11 32/32/11 33/33/11
f 34/34/12 35/35/12 36/36/12
f 37/37/13 38/38/13 39/39/13
f 40/40/14 41/41/14 42/42/14
f 43/43/15 44/44/15 45/45/15
f 46/46/16 47/47/16 48/48/16
