# Pyramid - low poly primitive, flat shaded
o PrototypePyramid
g PrototypePyramid
v -0.500000 0.000000 -0.500000
v 0.000000 1.000000 0.000000
v 0.500000 0.000000 -0.500000
v 0.500000 0.000000 -0.500000
v 0.000000 1.000000 0.000000
v 0.500000 0.000000 0.500000
v 0.500000 0.000000 0.500000
v 0.000000 1.000000 0.000000
v -0.500000 0.000000 0.500000
v -0.500000 0.000000 0.500000
v 0.000000 1.000000 0.000000
v -0.500000 0.000000 -0.500000
v -0.500000 0.000000 -0.500000
v 0.500000 0.000000 0.500000
v -0.500000 0.000000 0.500000
v -0.500000 0.000000 -0.500000
v 0.500000 0.000000 -0.500000
v 0.500000 0.000000 0.500000
vt 0.000000 0.000000
vt 0.500000 1.000000
vt 1.000000 0.000000
vt 0.000000 0.000000
vt 0.500000 1.000000
vt 1.000000 0.000000
vt 0.000000 0.000000
vt 0.500000 1.000000
vt 1.000000 0.000000
vt 0.000000 0.000000
vt 0.500000 1.000000
vt 1.000000 0.000000
vt 0.000000 0.000000
vt 1.000000 1.000000
vt 0.000000 1.000000
vt 0.000000 0.000000
vt 1.000000 0.000000
vt 1.000000 1.000000
vn 0.000000 0.447214 -0.894427
vn 0.894427 0.447214 -0.000000
vn 0.000000 0.447214 0.894427
vn -0.894427 0.447214 0.000000
vn 0.000000 -1.000000 0.000000
vn 0.000000 -1.000000 0.000000
f 1/1/1 2/2/1 3/3/1
f 4/4/2 5/5/2 6/6/2
f 7/7/3 8/8/3 9/9/3
f 10/10/4 11/11/4 12/12/4
f 13/13/5 14/14/5 15/15/5
f 16/16/6 17/17/6 18/18/6
